{"images":[{"uri":"T_wukong_dashengtao_touguanmao_d.png","name":"T_wukong_dashengtao_touguanmao_d.png"},{"uri":"T_wukong_dashengtao_yifu_d.png","name":"T_wukong_dashengtao_yifu_d.png"},{"uri":"T_wukong_dashengtao_shengzi_g.jpg","name":"T_wukong_dashengtao_shengzi_g.jpg"},{"uri":"T_wukong_body_d_noalpha.jpg","name":"T_wukong_body_d_noalpha.jpg"},{"uri":"T_wukong_dashengtao_xiongjia_d.png","name":"T_wukong_dashengtao_xiongjia_d.png"},{"uri":"T_wukong_dashengtao_shoujiao_d.png","name":"T_wukong_dashengtao_shoujiao_d.png"},{"uri":"T_wukong_dashengtao_qunjia_d.png","name":"T_wukong_dashengtao_qunjia_d.png"},{"uri":"未标题-1.png","name":"未标题-1.png"},{"uri":"T_wukong_dashengtao_shengzi_d.png","name":"T_wukong_dashengtao_shengzi_d.png"},{"uri":"T_wukong_head_d_noalpha.jpg","name":"T_wukong_head_d_noalpha.jpg"},{"uri":"T_wukong_dashengtao_jianjia_d.png","name":"T_wukong_dashengtao_jianjia_d.png"},{"uri":"T_wukong_dashengtao_yaojia_d.png","name":"T_wukong_dashengtao_yaojia_d.png"},{"uri":"T_wukong_body_n.jpg","name":"T_wukong_body_n.jpg"},{"uri":"T_wukong_dashengtao_shengzi_n.jpg","name":"T_wukong_dashengtao_shengzi_n.jpg"},{"uri":"T_wukong_head_n.jpg","name":"T_wukong_head_n.jpg"},{"uri":"T_wukong_dashengtao_touguan_d_TOU.png","name":"T_wukong_dashengtao_touguan_d_TOU.png"},{"uri":"T_wukong_dashengtao_xiongji_G.jpg","name":"T_wukong_dashengtao_xiongji_G.jpg"},{"uri":"T_wukong_dashengtao_qunjia__G.jpg","name":"T_wukong_dashengtao_qunjia__G.jpg"},{"uri":"T_wukong_dashengtao_jianjia_G.jpg","name":"T_wukong_dashengtao_jianjia_G.jpg"},{"uri":"T_wukong_dashengtao_xiongjia_n.jpg","name":"T_wukong_dashengtao_xiongjia_n.jpg"},{"uri":"T_wukong_dashengtao_qunjia_n.jpg","name":"T_wukong_dashengtao_qunjia_n.jpg"},{"uri":"T_wukong_dashengtao_yifu_p_G.jpg","name":"T_wukong_dashengtao_yifu_p_G.jpg"},{"uri":"T_wukong_dashengtao_shoujia_G.jpg","name":"T_wukong_dashengtao_shoujia_G.jpg"},{"uri":"T_wukong_dashengtao_jianjia_n.jpg","name":"T_wukong_dashengtao_jianjia_n.jpg"},{"uri":"T_wukong_dashengtao_touguan_b.jpg","name":"T_wukong_dashengtao_touguan_b.jpg"},{"uri":"T_wukong_dashengtao_yaojia__G.jpg","name":"T_wukong_dashengtao_yaojia__G.jpg"},{"uri":"T_wukong_dashengtao_touguanmao_n.png","name":"T_wukong_dashengtao_touguanmao_n.png"},{"uri":"T_wukong_dashengtao_touguan_G.jpg","name":"T_wukong_dashengtao_touguan_G.jpg"},{"uri":"T_wukong_dashengtao_shoujiao_n.jpg","name":"T_wukong_dashengtao_shoujiao_n.jpg"},{"uri":"T_wukong_dashengtao_touguan_NOM.jpg","name":"T_wukong_dashengtao_touguan_NOM.jpg"},{"uri":"T_wukong_dashengtao_yifu_n.png","name":"T_wukong_dashengtao_yifu_n.png"},{"uri":"T_wukong_dashengtao_yaojia_n.png","name":"T_wukong_dashengtao_yaojia_n.png"}],"accessors":[{"componentType":5123,"bufferView":0,"count":96762,"type":"SCALAR","byteOffset":0},{"componentType":5126,"bufferView":1,"max":[0.00285789626650512,0.00758925080299377,0.0214557088911533],"count":18080,"type":"VEC3","min":[-0.00151021091733128,-0.00758923683315516,-0.00000709015057509532],"byteOffset":0},{"componentType":5126,"bufferView":2,"count":18080,"type":"VEC3","byteOffset":0},{"componentType":5126,"bufferView":3,"count":18080,"type":"VEC4","byteOffset":0},{"componentType":5126,"bufferView":4,"count":18080,"type":"VEC2","byteOffset":0},{"componentType":5126,"bufferView":5,"count":18080,"type":"VEC2","byteOffset":0},{"componentType":5123,"bufferView":6,"count":66387,"type":"SCALAR","byteOffset":0},{"componentType":5126,"bufferView":7,"max":[0.00211254437454045,0.0060895592905581,0.0211528483778238],"count":12200,"type":"VEC3","min":[-0.00240527442656457,-0.0060909315943718,0.00396655825898051],"byteOffset":0},{"componentType":5126,"bufferView":8,"count":12200,"type":"VEC3","byteOffset":0},{"componentType":5126,"bufferView":9,"count":12200,"type":"VEC4","byteOffset":0},{"componentType":5126,"bufferView":10,"count":12200,"type":"VEC2","byteOffset":0},{"componentType":5126,"bufferView":11,"count":12200,"type":"VEC2","byteOffset":0},{"componentType":5123,"bufferView":12,"count":172632,"type":"SCALAR","byteOffset":0},{"componentType":5126,"bufferView":13,"max":[0.00248524709604681,0.00703329965472221,0.0239076297730207],"count":43751,"type":"VEC3","min":[-0.0032428028061986,-0.00703331269323826,0.00314099807292223],"byteOffset":0},{"componentType":5126,"bufferView":14,"count":43751,"type":"VEC3","byteOffset":0},{"componentType":5126,"bufferView":15,"count":43751,"type":"VEC4","byteOffset":0},{"componentType":5126,"bufferView":16,"count":43751,"type":"VEC2","byteOffset":0},{"componentType":5126,"bufferView":17,"count":43751,"type":"VEC2","byteOffset":0},{"componentType":5123,"bufferView":18,"count":175767,"type":"SCALAR","byteOffset":0},{"componentType":5126,"bufferView":19,"max":[0.000864873116370291,0.00107266753911972,0.0253352876752615],"count":35129,"type":"VEC3","min":[-0.000924417749047279,-0.00107012875378132,0.0234153345227242],"byteOffset":0},{"componentType":5126,"bufferView":20,"count":35129,"type":"VEC3","byteOffset":0},{"componentType":5126,"bufferView":21,"count":35129,"type":"VEC4","byteOffset":0},{"componentType":5126,"bufferView":22,"count":35129,"type":"VEC2","byteOffset":0},{"componentType":5123,"bufferView":23,"count":34686,"type":"SCALAR","byteOffset":0},{"componentType":5126,"bufferView":24,"max":[0.00149549974594265,0.000604354485403746,0.0222528520971537],"count":6538,"type":"VEC3","min":[0.000453860266134143,-0.000604924629442394,0.0207113027572632],"byteOffset":0},{"componentType":5126,"bufferView":25,"count":6538,"type":"VEC3","byteOffset":0},{"componentType":5126,"bufferView":26,"count":6538,"type":"VEC4","byteOffset":0},{"componentType":5126,"bufferView":27,"count":6538,"type":"VEC2","byteOffset":0},{"componentType":5123,"bufferView":28,"count":167943,"type":"SCALAR","byteOffset":0},{"componentType":5126,"bufferView":29,"max":[0.00171920971479267,0.00793095491826534,0.0234182644635439],"count":49333,"type":"VEC3","min":[-0.00692136259749532,-0.00793092790991068,0.00352271902374923],"byteOffset":0},{"componentType":5126,"bufferView":30,"count":49333,"type":"VEC3","byteOffset":0},{"componentType":5126,"bufferView":31,"count":49333,"type":"VEC4","byteOffset":0},{"componentType":5126,"bufferView":32,"count":49333,"type":"VEC2","byteOffset":0},{"componentType":5126,"bufferView":33,"count":49333,"type":"VEC2","byteOffset":0},{"componentType":5123,"bufferView":34,"count":88836,"type":"SCALAR","byteOffset":0},{"componentType":5126,"bufferView":35,"max":[0.00167073658667505,0.00126351322978735,0.0235149301588535],"count":15378,"type":"VEC3","min":[-0.0012050966033712,-0.00126371870283037,0.0204626694321632],"byteOffset":0},{"componentType":5126,"bufferView":36,"count":15378,"type":"VEC3","byteOffset":0},{"componentType":5126,"bufferView":37,"count":15378,"type":"VEC4","byteOffset":0},{"componentType":5126,"bufferView":38,"count":15378,"type":"VEC2","byteOffset":0},{"componentType":5123,"bufferView":39,"count":80190,"type":"SCALAR","byteOffset":0},{"componentType":5126,"bufferView":40,"max":[-0.000992539920844138,0.000805995368864387,0.0130861504003406],"count":32670,"type":"VEC3","min":[-0.00736484862864017,-0.000647808890789747,0.00285456888377666],"byteOffset":0},{"componentType":5126,"bufferView":41,"count":32670,"type":"VEC3","byteOffset":0},{"componentType":5126,"bufferView":42,"count":32670,"type":"VEC4","byteOffset":0},{"componentType":5126,"bufferView":43,"count":32670,"type":"VEC2","byteOffset":0},{"componentType":5126,"bufferView":44,"count":32670,"type":"VEC2","byteOffset":0},{"componentType":5125,"bufferView":45,"count":330876,"type":"SCALAR","byteOffset":0},{"componentType":5126,"bufferView":46,"max":[0.00425890600308776,0.00726337125524879,0.0210064128041267],"count":66853,"type":"VEC3","min":[-0.0033504085149616,-0.00726338429376483,0.000985696911811829],"byteOffset":0},{"componentType":5126,"bufferView":47,"count":66853,"type":"VEC3","byteOffset":0},{"componentType":5126,"bufferView":48,"count":66853,"type":"VEC4","byteOffset":0},{"componentType":5126,"bufferView":49,"count":66853,"type":"VEC2","byteOffset":0},{"componentType":5126,"bufferView":50,"count":66853,"type":"VEC2","byteOffset":0},{"componentType":5123,"bufferView":51,"count":265800,"type":"SCALAR","byteOffset":0},{"componentType":5126,"bufferView":52,"max":[0.00214034225791693,0.00784975383430719,0.0167633797973394],"count":56344,"type":"VEC3","min":[-0.00298200105316937,-0.00784973986446857,0.000745460740290582],"byteOffset":0},{"componentType":5126,"bufferView":53,"count":56344,"type":"VEC3","byteOffset":0},{"componentType":5126,"bufferView":54,"count":56344,"type":"VEC4","byteOffset":0},{"componentType":5126,"bufferView":55,"count":56344,"type":"VEC2","byteOffset":0},{"componentType":5126,"bufferView":56,"count":56344,"type":"VEC2","byteOffset":0},{"componentType":5123,"bufferView":57,"count":97440,"type":"SCALAR","byteOffset":0},{"componentType":5126,"bufferView":58,"max":[0.00455047190189362,0.00713347876444459,0.0194185208529234],"count":19203,"type":"VEC3","min":[-0.00338062690570951,-0.00713349273428321,0.00107430608477443],"byteOffset":0},{"componentType":5126,"bufferView":59,"count":19203,"type":"VEC3","byteOffset":0},{"componentType":5126,"bufferView":60,"count":19203,"type":"VEC4","byteOffset":0},{"componentType":5126,"bufferView":61,"count":19203,"type":"VEC2","byteOffset":0},{"componentType":5126,"bufferView":62,"count":19203,"type":"VEC2","byteOffset":0},{"componentType":5123,"bufferView":63,"count":34542,"type":"SCALAR","byteOffset":0},{"componentType":5126,"bufferView":64,"max":[0.00150617421604693,0.00579250697046518,0.0325506292283535],"count":8718,"type":"VEC3","min":[-0.01612389087677,-0.00579243060201406,0.021050900220871],"byteOffset":0},{"componentType":5126,"bufferView":65,"count":8718,"type":"VEC3","byteOffset":0},{"componentType":5126,"bufferView":66,"count":8718,"type":"VEC4","byteOffset":0},{"componentType":5126,"bufferView":67,"count":8718,"type":"VEC2","byteOffset":0},{"componentType":5123,"bufferView":68,"count":315768,"type":"SCALAR","byteOffset":0},{"componentType":5126,"bufferView":69,"max":[0.00308938696980476,0.00657417299225926,0.0212933029979467],"count":62227,"type":"VEC3","min":[-0.00299055920913815,-0.00657414551824331,0.0103355413302779],"byteOffset":0},{"componentType":5126,"bufferView":70,"count":62227,"type":"VEC3","byteOffset":0},{"componentType":5126,"bufferView":71,"count":62227,"type":"VEC4","byteOffset":0},{"componentType":5126,"bufferView":72,"count":62227,"type":"VEC2","byteOffset":0},{"componentType":5126,"bufferView":73,"count":62227,"type":"VEC2","byteOffset":0},{"componentType":5123,"bufferView":74,"count":122184,"type":"SCALAR","byteOffset":0},{"componentType":5126,"bufferView":75,"max":[0.00266519095748663,0.00420812703669071,0.0176243353635073],"count":24270,"type":"VEC3","min":[-0.00333127402700484,-0.00420814007520676,0.0071266102604568],"byteOffset":0},{"componentType":5126,"bufferView":76,"count":24270,"type":"VEC3","byteOffset":0},{"componentType":5126,"bufferView":77,"count":24270,"type":"VEC4","byteOffset":0},{"componentType":5126,"bufferView":78,"count":24270,"type":"VEC2","byteOffset":0},{"componentType":5126,"bufferView":79,"count":24270,"type":"VEC2","byteOffset":0}],"textures":[{"source":0,"sampler":0},{"source":1,"sampler":0},{"source":2,"sampler":0},{"source":3,"sampler":0},{"source":4,"sampler":0},{"source":5,"sampler":0},{"source":6,"sampler":0},{"source":7,"sampler":0},{"source":8,"sampler":0},{"source":9,"sampler":0},{"source":10,"sampler":0},{"source":11,"sampler":0},{"source":12,"sampler":0},{"source":13,"sampler":0},{"source":14,"sampler":0},{"source":15,"sampler":0},{"source":16,"sampler":0},{"source":17,"sampler":0},{"source":18,"sampler":0},{"source":19,"sampler":0},{"source":20,"sampler":0},{"source":21,"sampler":0},{"source":22,"sampler":0},{"source":23,"sampler":0},{"source":24,"sampler":0},{"source":25,"sampler":0},{"source":26,"sampler":0},{"source":27,"sampler":0},{"source":28,"sampler":0},{"source":29,"sampler":0},{"source":30,"sampler":0},{"source":31,"sampler":0}],"buffers":[{"byteLength":29474144,"uri":"buffer.bin"}],"bufferViews":[{"byteLength":193524,"target":34963,"byteOffset":0,"buffer":0},{"byteLength":216960,"target":34962,"byteOffset":193524,"buffer":0},{"byteLength":216960,"target":34962,"byteOffset":410484,"buffer":0},{"byteLength":289280,"target":34962,"byteOffset":627444,"buffer":0},{"byteLength":144640,"target":34962,"byteOffset":916724,"buffer":0},{"byteLength":144640,"target":34962,"byteOffset":1061364,"buffer":0},{"byteLength":132774,"target":34963,"byteOffset":1206004,"buffer":0},{"byteLength":146400,"target":34962,"byteOffset":1338780,"buffer":0},{"byteLength":146400,"target":34962,"byteOffset":1485180,"buffer":0},{"byteLength":195200,"target":34962,"byteOffset":1631580,"buffer":0},{"byteLength":97600,"target":34962,"byteOffset":1826780,"buffer":0},{"byteLength":97600,"target":34962,"byteOffset":1924380,"buffer":0},{"byteLength":345264,"target":34963,"byteOffset":2021980,"buffer":0},{"byteLength":525012,"target":34962,"byteOffset":2367244,"buffer":0},{"byteLength":525012,"target":34962,"byteOffset":2892256,"buffer":0},{"byteLength":700016,"target":34962,"byteOffset":3417268,"buffer":0},{"byteLength":350008,"target":34962,"byteOffset":4117284,"buffer":0},{"byteLength":350008,"target":34962,"byteOffset":4467292,"buffer":0},{"byteLength":351534,"target":34963,"byteOffset":4817300,"buffer":0},{"byteLength":421548,"target":34962,"byteOffset":5168836,"buffer":0},{"byteLength":421548,"target":34962,"byteOffset":5590384,"buffer":0},{"byteLength":562064,"target":34962,"byteOffset":6011932,"buffer":0},{"byteLength":281032,"target":34962,"byteOffset":6573996,"buffer":0},{"byteLength":69372,"target":34963,"byteOffset":6855028,"buffer":0},{"byteLength":78456,"target":34962,"byteOffset":6924400,"buffer":0},{"byteLength":78456,"target":34962,"byteOffset":7002856,"buffer":0},{"byteLength":104608,"target":34962,"byteOffset":7081312,"buffer":0},{"byteLength":52304,"target":34962,"byteOffset":7185920,"buffer":0},{"byteLength":335886,"target":34963,"byteOffset":7238224,"buffer":0},{"byteLength":591996,"target":34962,"byteOffset":7574112,"buffer":0},{"byteLength":591996,"target":34962,"byteOffset":8166108,"buffer":0},{"byteLength":789328,"target":34962,"byteOffset":8758104,"buffer":0},{"byteLength":394664,"target":34962,"byteOffset":9547432,"buffer":0},{"byteLength":394664,"target":34962,"byteOffset":9942096,"buffer":0},{"byteLength":177672,"target":34963,"byteOffset":10336760,"buffer":0},{"byteLength":184536,"target":34962,"byteOffset":10514432,"buffer":0},{"byteLength":184536,"target":34962,"byteOffset":10698968,"buffer":0},{"byteLength":246048,"target":34962,"byteOffset":10883504,"buffer":0},{"byteLength":123024,"target":34962,"byteOffset":11129552,"buffer":0},{"byteLength":160380,"target":34963,"byteOffset":11252576,"buffer":0},{"byteLength":392040,"target":34962,"byteOffset":11412956,"buffer":0},{"byteLength":392040,"target":34962,"byteOffset":11804996,"buffer":0},{"byteLength":522720,"target":34962,"byteOffset":12197036,"buffer":0},{"byteLength":261360,"target":34962,"byteOffset":12719756,"buffer":0},{"byteLength":261360,"target":34962,"byteOffset":12981116,"buffer":0},{"byteLength":1323504,"target":34963,"byteOffset":13242476,"buffer":0},{"byteLength":802236,"target":34962,"byteOffset":14565980,"buffer":0},{"byteLength":802236,"target":34962,"byteOffset":15368216,"buffer":0},{"byteLength":1069648,"target":34962,"byteOffset":16170452,"buffer":0},{"byteLength":534824,"target":34962,"byteOffset":17240100,"buffer":0},{"byteLength":534824,"target":34962,"byteOffset":17774924,"buffer":0},{"byteLength":531600,"target":34963,"byteOffset":18309748,"buffer":0},{"byteLength":676128,"target":34962,"byteOffset":18841348,"buffer":0},{"byteLength":676128,"target":34962,"byteOffset":19517476,"buffer":0},{"byteLength":901504,"target":34962,"byteOffset":20193604,"buffer":0},{"byteLength":450752,"target":34962,"byteOffset":21095108,"buffer":0},{"byteLength":450752,"target":34962,"byteOffset":21545860,"buffer":0},{"byteLength":194880,"target":34963,"byteOffset":21996612,"buffer":0},{"byteLength":230436,"target":34962,"byteOffset":22191492,"buffer":0},{"byteLength":230436,"target":34962,"byteOffset":22421928,"buffer":0},{"byteLength":307248,"target":34962,"byteOffset":22652364,"buffer":0},{"byteLength":153624,"target":34962,"byteOffset":22959612,"buffer":0},{"byteLength":153624,"target":34962,"byteOffset":23113236,"buffer":0},{"byteLength":69084,"target":34963,"byteOffset":23266860,"buffer":0},{"byteLength":104616,"target":34962,"byteOffset":23335944,"buffer":0},{"byteLength":104616,"target":34962,"byteOffset":23440560,"buffer":0},{"byteLength":139488,"target":34962,"byteOffset":23545176,"buffer":0},{"byteLength":69744,"target":34962,"byteOffset":23684664,"buffer":0},{"byteLength":631536,"target":34963,"byteOffset":23754408,"buffer":0},{"byteLength":746724,"target":34962,"byteOffset":24385944,"buffer":0},{"byteLength":746724,"target":34962,"byteOffset":25132668,"buffer":0},{"byteLength":995632,"target":34962,"byteOffset":25879392,"buffer":0},{"byteLength":497816,"target":34962,"byteOffset":26875024,"buffer":0},{"byteLength":497816,"target":34962,"byteOffset":27372840,"buffer":0},{"byteLength":244368,"target":34963,"byteOffset":27870656,"buffer":0},{"byteLength":291240,"target":34962,"byteOffset":28115024,"buffer":0},{"byteLength":291240,"target":34962,"byteOffset":28406264,"buffer":0},{"byteLength":388320,"target":34962,"byteOffset":28697504,"buffer":0},{"byteLength":194160,"target":34962,"byteOffset":29085824,"buffer":0},{"byteLength":194160,"target":34962,"byteOffset":29279984,"buffer":0}],"samplers":[{"magFilter":9729,"minFilter":9987}],"scene":0,"nodes":[{"rotation":[0,0,0,1],"scale":[1,1,1],"children":[1],"name":"RootNode","translation":[0,0,0]},{"rotation":[-0.707106828689575,0,0,0.707106709480286],"scale":[100,100,100],"name":"SK_wukong_foot_dashengtao.mo","translation":[0,0,0],"mesh":0}],"materials":[{"normalTexture":{"index":12},"pbrMetallicRoughness":{"roughnessFactor":0.47,"baseColorFactor":[1,1,1,1],"baseColorTexture":{"index":3},"metallicFactor":0},"extensions":{"KHR_materials_volume":{"attenuationColor":[0.4704402453042184,0.03287591694838383,0.03287591694838383],"thicknessFactor":5.62,"attenuationDistance":1},"KHR_materials_specular":{"specularFactor":0.3}},"name":"MF_GYCY_WuKong_02_Body02"},{"normalTexture":{"index":30},"pbrMetallicRoughness":{"metallicRoughnessTexture":{"index":21},"baseColorFactor":[1,1,1,1],"baseColorTexture":{"index":1}},"extensions":{"KHR_materials_volume":{"attenuationColor":[0.49361620131107364,0.02422294206753424,0.02422294206753424],"thicknessFactor":4.67,"attenuationDistance":1},"KHR_materials_specular":{"specularFactor":0.3}},"name":"M_wukong_dashengtao_yifu_layers"},{"normalTexture":{"index":13},"pbrMetallicRoughness":{"metallicRoughnessTexture":{"index":2},"baseColorFactor":[1,1,1,1],"baseColorTexture":{"index":8}},"extensions":{"KHR_materials_volume":{"attenuationColor":[0.4313402138074096,0.026548682828472912,0.026548682828472912],"thicknessFactor":1,"attenuationDistance":1},"KHR_materials_specular":{"specularFactor":0.3}},"name":"M_wukong_dashengtao_shengzi_layers","doubleSided":true,"alphaMode":"BLEND"},{"normalTexture":{"index":19},"pbrMetallicRoughness":{"metallicRoughnessTexture":{"index":16},"baseColorFactor":[1,1,1,1],"baseColorTexture":{"index":4}},"extensions":{"KHR_materials_specular":{"specularFactor":0.3}},"name":"M_wukong_dashengtao_xiongjia_layers","doubleSided":true,"alphaMode":"BLEND"},{"normalTexture":{"index":28},"pbrMetallicRoughness":{"metallicRoughnessTexture":{"index":22},"baseColorFactor":[1,1,1,1],"baseColorTexture":{"index":5}},"extensions":{"KHR_materials_specular":{"specularFactor":0.3}},"name":"M_wukong_dashengtao_shoujiao_layers","doubleSided":true,"alphaMode":"BLEND"},{"normalTexture":{"index":20},"pbrMetallicRoughness":{"metallicRoughnessTexture":{"index":17},"baseColorFactor":[1,1,1,1],"baseColorTexture":{"index":6}},"extensions":{"KHR_materials_specular":{"specularFactor":0.3}},"name":"M_wukong_dashengtao_qunjia_layers","doubleSided":true,"alphaMode":"BLEND"},{"normalTexture":{"index":29},"pbrMetallicRoughness":{"metallicRoughnessTexture":{"index":27},"baseColorFactor":[1,1,1,1],"baseColorTexture":{"index":15}},"extensions":{"KHR_materials_specular":{"specularFactor":0.3}},"name":"M_wukong_dashengtao_touguan_layers","doubleSided":true},{"normalTexture":{"index":26},"pbrMetallicRoughness":{"metallicRoughnessTexture":{"index":24},"baseColorFactor":[1,1,1,1],"baseColorTexture":{"index":0}},"extensions":{"KHR_materials_specular":{"specularFactor":0.3}},"name":"M_wukong_dashengtao_touguanmao_layers","doubleSided":true,"alphaMode":"BLEND"},{"pbrMetallicRoughness":{"roughnessFactor":0.229415729641914,"baseColorFactor":[0.05459227728176034,0.05459227728176034,0.05459227728176034,1],"metallicFactor":0},"extensions":{"KHR_materials_specular":{"specularFactor":0.3}},"name":"MF_WuKong_Eye_01"},{"normalTexture":{"index":7},"pbrMetallicRoughness":{"roughnessFactor":0.5,"baseColorFactor":[0.215859174728394,0.215860739350319,0.124771885573864,1],"metallicFactor":0},"alphaCutoff":0.51,"extensions":{"KHR_materials_volume":{"attenuationColor":[0.5113978188848795,0.01991783843878572,0.01991783843878572],"thicknessFactor":1,"attenuationDistance":1},"KHR_materials_specular":{"specularFactor":0.3}},"name":"M_Wukong_Haircard_Inst","alphaMode":"MASK"},{"normalTexture":{"index":14},"pbrMetallicRoughness":{"roughnessFactor":0.5,"baseColorFactor":[1,1,1,1],"baseColorTexture":{"index":9},"metallicFactor":0},"extensions":{"KHR_materials_volume":{"attenuationColor":[0.5604991522043282,0.22331040834112742,0.22331040834112742],"thicknessFactor":1,"attenuationDistance":1},"KHR_materials_specular":{"specularFactor":0.3}},"name":"MF_STC_LaoYing_01_Body"},{"normalTexture":{"index":23},"pbrMetallicRoughness":{"metallicRoughnessTexture":{"index":18},"baseColorFactor":[1,1,1,1],"baseColorTexture":{"index":10}},"extensions":{"KHR_materials_specular":{"specularFactor":0.3}},"name":"M_wukong_dashengtao_jianjia_layers","doubleSided":true,"alphaMode":"BLEND"},{"normalTexture":{"index":31},"pbrMetallicRoughness":{"metallicRoughnessTexture":{"index":25},"baseColorFactor":[1,1,1,1],"baseColorTexture":{"index":11}},"extensions":{"KHR_materials_specular":{"specularFactor":0.3}},"name":"M_wukong_dashengtao_yaojia_layers","doubleSided":true,"alphaMode":"BLEND"},{"pbrMetallicRoughness":{"roughnessFactor":0.47,"baseColorFactor":[0.215859174728394,0.215860739350319,0.124771885573864,1],"metallicFactor":0},"extensions":{"KHR_materials_specular":{"specularFactor":0.3}},"name":"M_Hair_KajiyaKai_Inst"}],"scenes":[{"nodes":[0],"name":"Root Scene"}],"asset":{"generator":"CG美术之家","source":"https://www.cgmszj.com/model/102906.html","version":"2.0"},"meshes":[{"primitives":[{"mode":4,"indices":0,"material":0,"attributes":{"TEXCOORD_1":5,"COLOR_0":3,"POSITION":1,"TEXCOORD_0":4,"NORMAL":2}},{"mode":4,"indices":6,"material":1,"attributes":{"TEXCOORD_1":11,"COLOR_0":9,"POSITION":7,"TEXCOORD_0":10,"NORMAL":8}},{"mode":4,"indices":12,"material":2,"attributes":{"TEXCOORD_1":17,"COLOR_0":15,"POSITION":13,"TEXCOORD_0":16,"NORMAL":14}},{"mode":4,"indices":18,"material":6,"attributes":{"COLOR_0":21,"POSITION":19,"TEXCOORD_0":22,"NORMAL":20}},{"mode":4,"indices":23,"material":8,"attributes":{"COLOR_0":26,"POSITION":24,"TEXCOORD_0":27,"NORMAL":25}},{"mode":4,"indices":28,"material":9,"attributes":{"TEXCOORD_1":33,"COLOR_0":31,"POSITION":29,"TEXCOORD_0":32,"NORMAL":30}},{"mode":4,"indices":34,"material":10,"attributes":{"COLOR_0":37,"POSITION":35,"TEXCOORD_0":38,"NORMAL":36}},{"mode":4,"indices":39,"material":13,"attributes":{"TEXCOORD_1":44,"COLOR_0":42,"POSITION":40,"TEXCOORD_0":43,"NORMAL":41}},{"mode":4,"indices":45,"material":3,"attributes":{"TEXCOORD_1":50,"COLOR_0":48,"POSITION":46,"TEXCOORD_0":49,"NORMAL":47}},{"mode":4,"indices":51,"material":4,"attributes":{"TEXCOORD_1":56,"COLOR_0":54,"POSITION":52,"TEXCOORD_0":55,"NORMAL":53}},{"mode":4,"indices":57,"material":5,"attributes":{"TEXCOORD_1":62,"COLOR_0":60,"POSITION":58,"TEXCOORD_0":61,"NORMAL":59}},{"mode":4,"indices":63,"material":7,"attributes":{"COLOR_0":66,"POSITION":64,"TEXCOORD_0":67,"NORMAL":65}},{"mode":4,"indices":68,"material":11,"attributes":{"TEXCOORD_1":73,"COLOR_0":71,"POSITION":69,"TEXCOORD_0":72,"NORMAL":70}},{"mode":4,"indices":74,"material":12,"attributes":{"TEXCOORD_1":79,"COLOR_0":77,"POSITION":75,"TEXCOORD_0":78,"NORMAL":76}}],"name":"SK_wukong_foot_dashengtao.mo"}]}