<?xml version="1.0" standalone="no"?><!DOCTYPE svg PUBLIC "-//W3C//DTD SVG 1.1//EN"
  "http://www.w3.org/Graphics/SVG/1.1/DTD/svg11.dtd">
<svg t="1739984713891" class="icon" viewBox="0 0 1024 1024" version="1.1" xmlns="http://www.w3.org/2000/svg"
     p-id="12310" xmlns:xlink="http://www.w3.org/1999/xlink" width="200" height="200">
  <path
    d="M407.366 76.06l-5.01 0.25-1.512 0.08-1.453 0.083-1.4 0.087-1.352 0.092-1.308 0.098-1.268 0.104-1.232 0.112-1.202 0.12-0.59 0.065-1.164 0.135-0.575 0.072-1.135 0.153c-0.377 0.053-0.75 0.108-1.123 0.165l-1.114 0.178a85.265 85.265 0 0 0-3.336 0.625l-1.124 0.24-0.567 0.128-1.146 0.269c-0.193 0.046-0.386 0.094-0.58 0.142l-1.18 0.298c-25.991 6.733-41.071 24.424-45.157 45.112l-0.154 0.81a60.922 60.922 0 0 0-0.16 21.277l0.103 0.591-0.583 0.483-0.458 0.389-0.577 0.5-0.607 0.534-0.636 0.57-1.007 0.92-0.705 0.655-0.732 0.69-0.756 0.724-1.18 1.148c-0.134 0.132-0.27 0.265-0.405 0.4l-0.827 0.824-1.281 1.297-0.437 0.448a188.546 188.546 0 0 0-17.29 20.53l-0.544 0.754c-15.369 21.37-25.45 44.776-27.277 70.072l-0.044 0.639-0.079 0.482c-5.604 34.538-5.502 83.206 0.107 121.1l0.086 0.578-0.012 0.016c-1.926 2.407-3.683 4.958-5.417 7.895-6.081 10.294-9.213 22.094-9.196 35.423 0 0.536 0.015 1.072 0.042 1.607l0.037 0.66 0.072 1.074 0.06 0.77 0.107 1.237 0.129 1.33 0.099 0.94 0.11 0.979 0.185 1.542 0.21 1.63 0.077 0.562c0.948 6.916 2.374 14.383 4.378 22.24 5.583 21.883 14.627 43.101 28.089 62.278l0.953 1.343 0.983 1.362 0.736 1.003 0.738 0.992 0.744 0.985 0.754 0.983 1.026 1.314 0.524 0.662 0.803 1.001 0.826 1.016 0.566 0.688 1.17 1.406 1.232 1.456 1.3 1.515 1.375 1.585 1.46 1.665 1.958 2.21 2.118 2.37 4.27 4.735 4.525 4.995 2.781 3.094 2.11 2.364 2.01 2.272 2.384 2.72 1.81 2.09 1.303 1.522 1.26 1.485 1.614 1.928 1.165 1.41 0.757 0.926 0.74 0.914 0.726 0.904 0.71 0.894 1.041 1.326 0.677 0.874 0.665 0.868 0.976 1.292 0.637 0.855 0.937 1.276 0.612 0.848 0.604 0.847 0.596 0.845 0.589 0.846 0.87 1.272 0.858 1.276 0.847 1.284 0.837 1.296 0.555 0.87 0.827 1.32 0.824 1.339 0.823 1.36c11.132 18.545 17.849 38.124 19.93 61.036l0.208 2.362 0.128 1.54 0.118 1.499 0.108 1.455 0.144 2.105 0.122 2.01 0.103 1.918 0.082 1.825 0.044 1.166 0.05 1.672 0.026 1.271-0.401 0.2-0.767 0.372-0.795 0.375-0.824 0.379-0.853 0.381-0.882 0.385-0.91 0.387-0.94 0.391-0.969 0.393-0.998 0.397-1.029 0.399-0.525 0.2-1.073 0.403-1.102 0.406-0.563 0.203-1.148 0.41-1.178 0.41-1.208 0.414-1.24 0.416-1.27 0.418-1.3 0.42-1.332 0.422-1.363 0.423-2.102 0.639-2.174 0.643-1.489 0.43-1.52 0.432-0.772 0.216-2.365 0.651-2.437 0.654-1.666 0.438-1.697 0.438c-12.582 3.222-26.08 6.05-39.637 8.455l-3.218 0.563-3.164 0.537-3.059 0.504-1.978 0.318-1.928 0.304-1.877 0.288-2.523 0.378-4.212 0.6a32 32 0 0 0-0.76 0.119c-45.215 7.632-84.084 21.394-115.475 41.218-26.868 16.97-48.268 38.333-63.313 63.47-9.47 15.826-15.848 32.193-19.622 48.563-2.774 12.033-3.938 23.095-3.975 32.763V879.635c0.013 0.816 0.03 1.592 0.055 2.327l0.023 0.639v18.99c0 26.945 22.094 48.409 48.893 48.409H901.777c26.433-0.43 48.09-21.73 48.09-48.406v-18.667l0.006-0.09c0.436-8.31-0.083-18.637-2.201-30.458-3.277-18.286-9.876-36.795-20.567-54.726-14.908-25-36.274-46.329-63.2-63.392-31.442-19.924-70.457-33.96-116.646-42.258-0.344-0.062-0.69-0.118-1.036-0.169l-1.687-0.233-1.762-0.252-2.025-0.3-2.715-0.415-1.882-0.295-2.925-0.473-3.041-0.506-3.15-0.54c-14.14-2.46-28.343-5.4-41.578-8.78l-1.635-0.42-1.678-0.44-1.644-0.438-1.613-0.437-1.58-0.435-1.547-0.435-1.516-0.433-1.483-0.431-1.452-0.43-1.42-0.428-1.388-0.427-1.357-0.425-1.326-0.422-1.93-0.63-1.249-0.419-1.217-0.415-1.187-0.414-1.156-0.41-1.126-0.41-1.096-0.406-0.536-0.202-1.05-0.402-1.021-0.4-0.991-0.397-0.962-0.394-0.47-0.196-0.916-0.39-0.888-0.386-0.86-0.384-0.829-0.38-0.404-0.19-0.787-0.375-0.833-0.409 0.027-1.233 0.03-1.105 0.04-1.146 0.049-1.188 0.057-1.228 0.066-1.27 0.116-1.981 0.089-1.373 0.098-1.415 0.166-2.2 0.123-1.52 0.132-1.56 0.142-1.604c2.049-22.55 8.587-41.87 19.404-60.156l0.8-1.34 0.824-1.352 0.825-1.331 0.829-1.315 0.556-0.868 0.84-1.291 0.566-0.855 0.57-0.852 0.866-1.273 0.585-0.846 0.593-0.846 0.903-1.27 0.612-0.847 0.937-1.276 0.637-0.856 0.975-1.291 0.665-0.868 0.678-0.874 1.04-1.326 1.072-1.345 1.105-1.368 1.14-1.392 1.179-1.42 1.218-1.452 1.259-1.485 1.303-1.521 1.81-2.09 2.384-2.721 2.011-2.272 1.042-1.17 2.16-2.412 2.848-3.16 6.093-6.73 2.955-3.295 1.926-2.166 2.13-2.422 1.32-1.52 0.945-1.098 1.493-1.759 0.572-0.682 1.106-1.334 0.798-0.978 0.52-0.643 1.263-1.587 0.978-1.256 0.489-0.637a182.759 182.759 0 0 0 3.6-4.883c13.88-19.478 23.152-41.101 28.814-63.437l0.198-0.785 0.382-1.557 0.367-1.54 0.351-1.522c0.172-0.757 0.337-1.507 0.497-2.25l0.313-1.476 0.297-1.455 0.143-0.72 0.275-1.425 0.261-1.402 0.125-0.693 0.24-1.368 0.224-1.345 0.212-1.32 0.1-0.65 0.191-1.283 0.178-1.255 0.164-1.23 0.151-1.2 0.14-1.173 0.125-1.144 0.114-1.114 0.102-1.083 0.046-0.53 0.084-1.036 0.037-0.506 0.067-0.986 0.055-0.954c0.016-0.312 0.03-0.619 0.044-0.92a32 32 0 0 0 0.028-1.359c0-8.353-1.053-15.898-3.414-23.22-2.25-7.001-5.53-13.22-9.656-18.872l-0.354-0.482-0.348-0.467-0.442-0.584 0.05-0.374c1.51-11.336 2.497-21.547 3.044-31.464l0.087-1.62c1.743-32.875 1.115-60.841-3.706-88.823l-0.113-0.645-0.14-1.014c-0.899-6.316-2.295-12.82-4.291-20.154-7.06-25.961-18.64-48.533-34.81-67.33a32 32 0 0 0-0.7-0.788l-0.278-0.3-0.581-0.616-0.616-0.636a76.603 76.603 0 0 0-0.32-0.325l-0.668-0.665-0.701-0.683-0.364-0.348-0.753-0.71-0.787-0.728-0.823-0.745c-0.28-0.251-0.565-0.505-0.857-0.762l-0.891-0.777-0.927-0.794-0.962-0.81-0.997-0.824-0.512-0.417-1.05-0.847-0.538-0.428-1.103-0.867-1.139-0.88-0.583-0.445-1.192-0.9c-11.359-8.5-25.291-16.952-41.974-24.943-45.33-21.71-103.878-36.838-177.047-42.286l-1.462-0.106-1.457-0.1-1.451-0.094-2.17-0.13-1.445-0.079-1.444-0.073-2.166-0.098-2.17-0.085-1.452-0.05-2.188-0.064-1.467-0.035-1.475-0.03-2.23-0.034-1.5-0.016-2.274-0.015h-3.862l-2.367 0.025-1.601 0.019-3.264 0.054-3.353 0.074-1.713 0.045-2.618 0.076-1.78 0.058-3.648 0.13-3.773 0.148-3.908 0.168-4.052 0.187-2.083 0.1z m213.774 99.932c9.674 4.634 17.915 9.324 24.815 13.913l1.362 0.916c1.793 1.22 3.49 2.432 5.095 3.632 1.072 0.802 2.062 1.57 2.974 2.302l0.886 0.72c0.716 0.589 1.377 1.152 1.985 1.687l0.704 0.63 0.63 0.58 0.353 0.335 0.198 0.193 0.513 0.614c9.202 11.102 16.038 24.71 20.502 41.128l0.352 1.313 0.167 0.64 0.316 1.245 0.15 0.607 0.283 1.183c0.182 0.776 0.349 1.527 0.502 2.255l0.22 1.076 0.2 1.044 0.182 1.017 0.163 0.99 0.145 0.968 0.067 0.475 0.062 0.47c0.065 0.509 0.142 1.015 0.231 1.518 3.279 18.5 4.262 37.937 3.677 60.22l-0.08 2.742-0.095 2.772c-0.034 0.93-0.07 1.863-0.11 2.802l-0.125 2.833-0.139 2.864c-0.049 0.96-0.1 1.926-0.153 2.897l-0.113 1.931-0.127 1.948-0.142 1.966-0.156 1.987-0.084 1.002-0.178 2.023-0.095 1.021-0.202 2.063c-0.035 0.346-0.07 0.694-0.107 1.043l-0.225 2.108-0.118 1.067-0.25 2.159c-0.086 0.725-0.174 1.457-0.266 2.195l-0.282 2.234-0.3 2.275-0.156 1.153-0.326 2.34c-0.056 0.394-0.112 0.79-0.17 1.187l-0.352 2.41a593.5 593.5 0 0 1-0.37 2.46c-1.316 8.602-0.875 16.19 3.196 24.182a33.562 33.562 0 0 0 2.742 4.481l0.145 0.198 0.268 0.36 0.272 0.352 0.502 0.63 0.453 0.543 0.52 0.6 0.413 0.467 0.41 0.452 0.419 0.455 0.678 0.72 2.382 2.473 0.632 0.671 0.387 0.422 0.32 0.36 0.335 0.397 0.133 0.168 0.162 0.221 0.124 0.19 0.065 0.114 0.076 0.156 0.057 0.145 0.047 0.148 0.031 0.115 0.06 0.256 0.054 0.295 0.024 0.164 0.044 0.364c0.02 0.195 0.036 0.41 0.05 0.648l0.023 0.509 0.008 0.355-0.057 0.697-0.08 0.86-0.096 0.921-0.055 0.483-0.12 1.01-0.139 1.066c-0.629 4.682-1.605 9.851-2.991 15.318-3.838 15.138-10.03 29.58-18.893 42.017l-0.656 0.91-0.675 0.916-0.699 0.93-0.725 0.942-0.757 0.964-0.797 0.994-0.842 1.03-0.893 1.075-1.199 1.418-1.575 1.83-1.442 1.65-1.572 1.778-3.197 3.576-7.387 8.167-2.626 2.917-2.512 2.81-2.404 2.71-2.301 2.619-1.114 1.278-1.628 1.88-1.057 1.23-1.545 1.815-1.004 1.19-0.985 1.176-1.441 1.738-0.939 1.144-1.376 1.697-0.897 1.119-0.882 1.11-0.867 1.104-0.854 1.098-0.84 1.092-0.828 1.088-0.817 1.086-0.805 1.083-0.796 1.083-0.786 1.082-0.777 1.084-0.77 1.086-0.762 1.09-0.756 1.093-0.375 0.549-0.748 1.102-0.743 1.109-0.739 1.116-0.736 1.126-0.733 1.136-0.732 1.147-0.731 1.159-0.731 1.172-1.098 1.785-0.733 1.21-0.368 0.61c-15.937 26.553-25.808 55.328-28.793 88.186l-0.177 2-0.165 1.957-0.153 1.915-0.072 0.941-0.135 1.852-0.122 1.81-0.11 1.769-0.1 1.728-0.087 1.687-0.04 0.829-0.07 1.627-0.058 1.587-0.047 1.548-0.036 1.51-0.026 1.47c-0.01 0.725-0.015 1.436-0.017 2.132v0.807c0.001 0.723 0.007 1.429 0.017 2.118l0.027 1.355 0.037 1.311 0.023 0.64 0.055 1.245c0.03 0.613 0.063 1.21 0.102 1.792l0.081 1.143 0.093 1.103c0.212 2.35 0.499 4.426 0.856 6.273l0.13 0.637a32 32 0 0 0 2.262 6.752l0.026 0.056 0.189 0.565c6.8 19.716 32.888 34.765 83.429 47.674 15.014 3.834 30.785 7.098 46.443 9.822l2.173 0.375 3.18 0.536 2.062 0.34 3.006 0.482 2.893 0.451 3.856 0.579 2.43 0.35 0.94 0.129 1.923 0.353c37.324 6.954 67.745 18.041 91.12 32.854 18.7 11.85 32.893 26.017 42.488 42.109 6.564 11.009 10.571 22.247 12.54 33.237 0.72 4.02 1.12 7.768 1.266 11.166 0.046 1.08 0.06 2.075 0.06 2.978l-0.01 0.698-0.02 0.68-0.035 0.709-0.038 0.7a32 32 0 0 0-0.03 1.4l-0.001 4.002H139.079v-4.124a32 32 0 0 0-0.019-1.113l-0.039-0.89-0.011-0.405-0.01-0.744v-0.422c0.02-5.114 0.69-11.473 2.34-18.635 2.323-10.077 6.271-20.21 12.175-30.073 9.739-16.273 23.962-30.471 42.571-42.225l0.811-0.509c20.892-13.023 47.298-22.958 78.668-29.387l2.455-0.494a365.036 365.036 0 0 1 8.748-1.616l0.816-0.14 2.403-0.339 2.274-0.332 2.246-0.338 2.079-0.32 2.132-0.335 2.184-0.35 2.236-0.367 2.286-0.383 2.333-0.398 1.185-0.206c15.802-2.75 31.64-6.032 46.676-9.882l1.56-0.402c49.647-12.886 75.01-27.866 81.63-47.349l0.137-0.418 0.024-0.05a32 32 0 0 0 2.39-7.385l0.123-0.657 0.117-0.677 0.112-0.696 0.105-0.717 0.1-0.738 0.093-0.758 0.088-0.78 0.082-0.8 0.075-0.822 0.07-0.844 0.092-1.307 0.078-1.357 0.044-0.933 0.038-0.956 0.031-0.98 0.025-1.003 0.018-1.027 0.006-0.522 0.008-1.063 0.001-1.087-0.006-1.112-0.012-1.137-0.033-1.752-0.03-1.2-0.059-1.848-0.075-1.907-0.091-1.967-0.07-1.345-0.079-1.371-0.085-1.4-0.142-2.15-0.16-2.213-0.115-1.511-0.256-3.108-0.213-2.408c-2.985-32.86-12.857-61.633-28.794-88.184l-1.109-1.834-1.11-1.804-0.739-1.185-0.739-1.171-0.74-1.159-0.742-1.148-0.744-1.137-0.748-1.128-1.129-1.678-0.759-1.11-0.765-1.106-0.772-1.1-0.779-1.098-0.787-1.096-0.796-1.094-0.807-1.095-1.229-1.644-1.255-1.651-1.284-1.66-1.315-1.674-0.896-1.126-0.911-1.133-1.399-1.72-1.438-1.745-0.983-1.179-1.002-1.193-1.022-1.209-1.574-1.843-1.076-1.251-1.66-1.912-2.296-2.622-1.79-2.026-1.226-1.38-1.255-1.406-1.935-2.159-3.374-3.74-1.233-1.359-0.179-0.2-3.458-3.819-2.3-2.557-2.073-2.325-2.161-2.451-1.392-1.6-0.78-0.908-1.45-1.71-1.106-1.336-0.83-1.02-0.592-0.74-0.757-0.964-0.546-0.708-0.704-0.931-0.514-0.693-0.5-0.684-0.49-0.683c-8.855-12.424-15.051-26.855-18.905-41.96-1.38-5.414-2.355-10.514-2.985-15.115l-0.137-1.029-0.12-0.971-0.102-0.912-0.087-0.852-0.077-0.845-0.013-0.155 0.004-0.204 0.01-0.27 0.02-0.251 0.014-0.12 0.036-0.226c0.086-0.442 0.257-0.816 0.593-1.252l0.182-0.224 0.212-0.238 0.244-0.255 0.278-0.276 0.487-0.461 0.79-0.722 2.39-2.15a32 32 0 0 0 7.961-11.007l0.118-0.268c0.144-0.33 0.283-0.662 0.415-0.996 2.448-6.154 2.976-11.836 2.548-17.603-0.1-1.344-0.251-2.617-0.446-3.887l-0.172-1.056-0.112-0.636-0.183-0.966-0.08-0.405c-6.153-32.37-6.698-81.345-1.422-111.83a32 32 0 0 0 0.43-3.896c0.611-12.51 6.324-25.92 15.836-39.012a124.976 124.976 0 0 1 12.306-14.458l0.862-0.858 0.825-0.803c0.269-0.259 0.531-0.508 0.787-0.748l0.86-0.796 0.567-0.51 0.076-0.067 0.418-0.346 1.322-1.103 1.28-1.082 1.237-1.064c7.505-6.503 12.73-12.06 17.313-19.158a32 32 0 0 0 3.772-8.177c1.405-4.69 2.033-9.468 1.588-14.528a35.36 35.36 0 0 0-1.599-7.855l-0.185-0.557a35.67 35.67 0 0 0-0.583-1.576l-0.217-0.535 0.744-0.09 0.615-0.067 0.987-0.095 0.705-0.06 0.747-0.058 1.624-0.11 1.818-0.106 3.493-0.178 3.761-0.184 3.618-0.168 4.332-0.187 3.323-0.131 3.205-0.114 2.332-0.075 2.272-0.065 2.945-0.072 2.855-0.054 1.395-0.021 2.734-0.028 2.003-0.01h1.315l2.585 0.012 1.273 0.013 1.885 0.028 1.862 0.038 1.84 0.049 1.822 0.06 1.207 0.045 1.8 0.077 1.196 0.057 1.787 0.095 1.785 0.106 1.784 0.116 1.787 0.128c65.382 4.869 116.164 17.99 154.153 36.184z"
    p-id="12311" fill="currentColor"></path>
</svg>
