<?xml version="1.0" standalone="no"?><!DOCTYPE svg PUBLIC "-//W3C//DTD SVG 1.1//EN"
  "http://www.w3.org/Graphics/SVG/1.1/DTD/svg11.dtd">
<svg t="1739983390357" class="icon" viewBox="0 0 1024 1024" version="1.1" xmlns="http://www.w3.org/2000/svg" p-id="6321"
     xmlns:xlink="http://www.w3.org/1999/xlink" width="200" height="200">
  <path
    d="M89.664 938.688a44.16 44.16 0 0 1-20.352-4.608 48 48 0 0 1-26.624-41.472V217.344c0-72.128 61.12-132.032 134.72-132.032h670.72c73.6 0 134.784 59.904 134.784 132.032v452.736c0 72.128-61.12 131.968-134.784 131.968H293.376l-175.488 127.36a47.616 47.616 0 0 1-28.16 9.28zM177.408 177.408a41.088 41.088 0 0 0-40.704 39.936v583.168l112.832-81.28a44.352 44.352 0 0 1 28.16-9.216h570.432a41.088 41.088 0 0 0 40.768-39.936V217.344a41.088 41.088 0 0 0-40.768-39.936H177.408z"
    fill="currentColor" p-id="6322"></path>
</svg>
