<?xml version="1.0" standalone="no"?><!DOCTYPE svg PUBLIC "-//W3C//DTD SVG 1.1//EN" "http://www.w3.org/Graphics/SVG/1.1/DTD/svg11.dtd"><svg t="1740046482583" class="icon" viewBox="0 0 1024 1024" version="1.1" xmlns="http://www.w3.org/2000/svg" p-id="10306" xmlns:xlink="http://www.w3.org/1999/xlink" width="200" height="200"><path d="M512 165c191.7 0 347 155.4 347 347S703.7 859 512 859 165 703.7 165 512s155.3-347 347-347m0-100.5C265.2 64.5 64.5 265.2 64.5 512S265.3 959.5 512 959.5c246.8 0 447.5-200.8 447.5-447.5 0-246.8-200.7-447.5-447.5-447.5z" fill="#000000" p-id="10307"></path><path d="M672.1 423.4l-126.7-116c-0.2-0.2-0.4-0.2-0.6-0.4-3.9-3.5-8.2-6.4-13.1-8.6-0.7-0.3-1.4-0.3-2-0.6-1.6-0.6-3.1-0.8-4.7-1.3-4.2-1.2-8.5-1.9-12.8-1.9-1.7 0-3.4 0-5.1 0.1-5 0.4-9.8 1.6-14.4 3.5-0.8 0.3-1.7 0.4-2.5 0.8-4.6 2.2-8.9 4.9-12.7 8.5l-125.7 116c-20.4 18.8-21.7 50.6-2.9 71s50.6 21.7 71 2.9l41.4-38.2v220.3c0 27.8 22.5 50.2 50.2 50.2 27.8 0 50.2-22.5 50.2-50.2V458.6l42.6 39c9.6 8.8 21.8 13.2 33.9 13.2 13.6 0 27.2-5.5 37.1-16.3 18.7-20.6 17.3-52.4-3.2-71.1z" fill="#000000" p-id="10308"></path></svg>