<?xml version="1.0" standalone="no"?><!DOCTYPE svg PUBLIC "-//W3C//DTD SVG 1.1//EN"
  "http://www.w3.org/Graphics/SVG/1.1/DTD/svg11.dtd">
<svg t="1739983356864" class="icon" viewBox="0 0 1024 1024" version="1.1" xmlns="http://www.w3.org/2000/svg" p-id="5299"
     xmlns:xlink="http://www.w3.org/1999/xlink" width="200" height="200">
  <path
    d="M379.093503 197.910489c72.324212 119.975489 68.833715 116.127857 132.410706 116.127857l371.260605 0 0 500.68735L137.20029 814.725696 137.20029 199.853747l257.145591 0M396.813073 124.071783l-262.07895 0c-40.483017 0-73.314773 32.831756-73.314773 73.314773l0 619.809401c0 40.481993 32.831756 73.315796 73.314773 73.315796l750.498906 0c40.48711 0 73.315796-32.833803 73.315796-73.315796L958.548824 311.50771c0-40.48711-32.827663-73.319889-73.315796-73.319889L511.504208 238.187821C439.195346 141.243885 449.497992 124.071783 396.813073 124.071783L396.813073 124.071783 396.813073 124.071783zM396.813073 124.071783"
    fill="currentColor" p-id="5300"></path>
</svg>
